
 
http://www.imdb.com/title/tt1702439/


Plot: A young woman with a mysterious past lands in Southport, North Carolina where her bond with a widower forces her to confront the dark secret that haunts her. 



Director:
 Lasse Hallström 

Writers:
 Leslie Bohem (screenplay), Dana Stevens (screenplay)

Stars:
 Julianne Hough, Josh Duhamel, Cobie Smulders 

Genres:
  Drama |  Mystery |  Romance |  Thriller 

Country:
 USA 

Language:
 English | Portuguese 




Format                                   : AVI
Format/Info                              : Audio Video Interleave
Format profile                           : OpenDML
Format settings                          : rec
File size                                : 920 MiB
Duration                                 : 1h 49mn
Overall bit rate                         : 1 175 Kbps
Writing application                      : AVI-Mux GUI 1.17.8.3, Feb 16 201019:42:50

Video
ID                                       : 0
Format                                   : MPEG-4 Visual
Format profile                           : Advanced Simple@L5
Format settings, BVOP                    : 1
Format settings, QPel                    : No
Format settings, GMC                     : No warppoints
Format settings, Matrix                  : Default (H.263)
Muxing mode                              : Packed bitstream
Codec ID                                 : XVID
Codec ID/Hint                            : XviD
Duration                                 : 1h 49mn
Bit rate                                 : 978 Kbps
Width                                    : 640 pixels
Height                                   : 340 pixels
Display aspect ratio                     : 1.882
Frame rate                               : 24.000 fps
Color space                              : YUV
Chroma subsampling                       : 4:2:0
Bit depth                                : 8 bits
Scan type                                : Progressive
Compression mode                         : Lossy
Bits/(Pixel*Frame)                       : 0.187
Stream size                              : 766 MiB (83%)
Writing library                          : XviD 64

Audio
ID                                       : 1
Format                                   : AC-3
Format/Info                              : Audio Coding 3
Mode extension                           : CM (complete main)
Format settings, Endianness              : Big
Codec ID                                 : 2000
Duration                                 : 1h 49mn
Bit rate mode                            : Constant
Bit rate                                 : 192 Kbps
Channel(s)                               : 2 channels
Channel positions                        : Front: L R
Sampling rate                            : 48.0 KHz
Bit depth                                : 16 bits
Compression mode                         : Lossy
Stream size                              : 150 MiB (16%)
Alignment                                : Aligned on interleaves
Interleave, duration                     : 64 ms (1.54 video frames)
Interleave, preload duration             : 192 ms
Title                                    : Audio-fanta



 
http://bayimg.com/ealmcaaEI
 
http://bayimg.com/eaLMdaAei
 
http://bayimg.com/eaLMEAaeI
